# xmcd
#
# Track frame offsets:
#	300
#	13187
#	26603
#	37132
#	45473
#	56868
#	70818
#	83590
#	96110
#	105109
#
# Disc length: 1571 seconds
# Revision: 1
# Processed by: cddbd v1.5.2PL0 Copyright (c) Steve Scherf et al.
# Submitted via: dBpowerAMP V12.0
#
DISCID=79061f0a
DTITLE=Willie Nelson - I just Don't Understand
DYEAR=1900
DGENRE=Country
TTITLE0=I just Don't Understand
TTITLE1=You'll Always Have Someone
TTITLE2=Blame it on the Times
TTITLE3=You Wouldn't Cross the Street to Say Goodbye
TTITLE4=Suffer in Silence
TTITLE5=Home is Where You're Happy
TTITLE6=I Can't Find the Time
TTITLE7=Shelter of Your Arms
TTITLE8=Why are You Always Picking on Me
TTITLE9=Any Ole Arms Won't Do
EXTD=
EXTT0=
EXTT1=
EXTT2=
EXTT3=
EXTT4=
EXTT5=
EXTT6=
EXTT7=
EXTT8=
EXTT9=
PLAYORDER=
